<svg id="visual" viewBox="0 0 900 450" width="900" height="450" xmlns="http://www.w3.org/2000/svg" xmlns:xlink="http://www.w3.org/1999/xlink" version="1.1"><rect x="0" y="0" width="900" height="450" fill="#fff"></rect><path d="M588 0L563 8.3C538 16.7 488 33.3 494.3 50C500.7 66.7 563.3 83.3 560 100C556.7 116.7 487.3 133.3 471.8 150C456.3 166.7 494.7 183.3 504.3 200C514 216.7 495 233.3 498 250C501 266.7 526 283.3 543.2 300C560.3 316.7 569.7 333.3 537.3 350C505 366.7 431 383.3 424.5 400C418 416.7 479 433.3 509.5 441.7L540 450L0 450L0 441.7C0 433.3 0 416.7 0 400C0 383.3 0 366.7 0 350C0 333.3 0 316.7 0 300C0 283.3 0 266.7 0 250C0 233.3 0 216.7 0 200C0 183.3 0 166.7 0 150C0 133.3 0 116.7 0 100C0 83.3 0 66.7 0 50C0 33.3 0 16.7 0 8.3L0 0Z" fill="#080454" stroke-linecap="round" stroke-linejoin="miter"></path></svg>