<svg id="visual" viewBox="0 0 900 600" width="900" height="600" xmlns="http://www.w3.org/2000/svg" xmlns:xlink="http://www.w3.org/1999/xlink" version="1.1"><g transform="translate(454.8311841351489 247.252227021923)"><path d="M159.8 -178.3C199.2 -157.4 217.8 -99.5 224.5 -42.4C231.2 14.7 226 71.1 201 117.7C176.1 164.2 131.3 201 73.1 238.5C14.9 276 -56.7 314.2 -84.6 282.4C-112.6 250.5 -96.9 148.7 -124.3 81.4C-151.6 14.1 -222.1 -18.8 -234.7 -57.7C-247.3 -96.7 -202.1 -141.8 -153.3 -161C-104.6 -180.3 -52.3 -173.6 4 -178.4C60.2 -183.1 120.4 -199.2 159.8 -178.3" fill="#080454"></path></g></svg>