<svg id="visual" viewBox="0 0 675 900" width="675" height="900" xmlns="http://www.w3.org/2000/svg" xmlns:xlink="http://www.w3.org/1999/xlink" version="1.1"><g transform="translate(450.01664814608364 546.2192804180777)"><path d="M205.9 -315.1C230.2 -225.1 187.8 -125.4 175.9 -51.9C163.9 21.6 182.4 68.8 179.6 131.9C176.8 195.1 152.7 274.2 101.2 304.4C49.7 334.5 -29.2 315.7 -121.8 297.9C-214.4 280.1 -320.7 263.3 -378 200.5C-435.3 137.8 -443.7 29 -435.8 -87.5C-427.9 -204 -403.8 -328.2 -328.4 -409.2C-253.1 -490.3 -126.5 -528.1 -17.9 -506.9C90.8 -485.6 181.7 -405.2 205.9 -315.1" fill="#080454"></path></g></svg>